<svg xmlns="http://www.w3.org/2000/svg" viewBox="0 0 32 32" fill="none">
  <!-- Shield background -->
  <path d="M16 2L28 8V16C28 22.6274 22.6274 28 16 28C9.37258 28 4 22.6274 4 16V8L16 2Z" fill="#1a1a1a" stroke="#404040" stroke-width="1.5"/>
  
  <!-- Shield inner highlight -->
  <path d="M16 4L26 9V16C26 21.5228 21.5228 26 16 26C10.4772 26 6 21.5228 6 16V9L16 4Z" fill="#333333"/>
  
  <!-- Shield center -->
  <path d="M16 6L24 10V16C24 20.4183 20.4183 24 16 24C11.5817 24 8 20.4183 8 16V10L16 6Z" fill="#4d4d4d"/>
  
  <!-- Shield core -->
  <path d="M16 8L22 11V16C22 19.3137 19.3137 22 16 22C12.6863 22 10 19.3137 10 16V11L16 8Z" fill="#666666"/>
  
  <!-- Shield innermost -->
  <path d="M16 10L20 12V16C20 18.2091 18.2091 20 16 20C13.7909 20 12 18.2091 12 16V12L16 10Z" fill="#808080"/>
  
  <!-- Center dot -->
  <circle cx="16" cy="16" r="2" fill="#ffffff"/>
</svg> 